# xmcd CD database file
#
# Track frame offsets:
#	150
#	35010
#	62302
#	90067
#	120785
#	141270
#	168327
#	237907
#	245385
#	276812
#	295315
#	316405
#
# Disc length: 4441 seconds
#
# Revision: 0
# Processed by: cddbd v1.5PL3 Copyright (c) Steve Scherf et al.
# Submitted via: CDex 1.50
#
DISCID=9911570c
DTITLE=富樫雅彦 - Rings
DYEAR=1976
DGENRE=Jazz
TTITLE0=Ring 1
TTITLE1=Ring 2
TTITLE2=Ring 3
TTITLE3=Ring 4
TTITLE4=Ring 5
TTITLE5=Ring 6
TTITLE6=Ring 7
TTITLE7=Ring 8
TTITLE8=Ring 9
TTITLE9=Ring 10
TTITLE10=Ring 11
TTITLE11=Ring 12
EXTD=YEAR: 1976
EXTT0=
EXTT1=
EXTT2=
EXTT3=
EXTT4=
EXTT5=
EXTT6=
EXTT7=
EXTT8=
EXTT9=
EXTT10=
EXTT11=
PLAYORDER=
